<svg id="Layer_1" data-name="Layer 1" xmlns="http://www.w3.org/2000/svg" viewBox="0 0 965.35 921.36"><defs><style>.cls-1{fill:#7a00cc;}</style></defs><title>logo</title><path class="cls-1" d="M939,751.72q-24.43-17.12-80.64-55,45.21-100.19,45.21-201.62,0-200.4-133.2-331.16t-314-130.75Q372,33.19,292.59,67.4a457.66,457.66,0,0,0-140.54,94.1Q91,221.38,54.3,310T17.65,500q0,185.78,130.13,320.18t319.55,134.4q141.75,0,255.39-88,15.88,9.79,44,29.34t34.23,23.21q47.64,33,70.87,33,37.88,0,74.54-53.76T983,814.64Q983,784.73,939,751.72ZM692.2,731.5q-24.53,46.66-64.11,72.13-76.38,50-163.12,50a316.83,316.83,0,0,1-83.92-10.84q-39.6-10.83-64.12-26.87-50-30.18-69.77-58.46l-8.49-10.38q-24.53-30.16-24.51-54.21t40.54-63.65q23.57-22.62,50-22.63t73.54,47.15q13.2,16,37.72,30.64T461.2,699q87.68,0,87.68-71.66,0-21.69-24-36.3T465,569.79q-35.85-6.57-77.32-21.21a509.37,509.37,0,0,1-77.32-34.42q-35.83-19.8-59.87-62.7t-24-103.25q0-82.95,61.75-144.73t168.31-61.76q56.58,0,103.25,14.61T624.32,186L647.89,204q29.22,27.36,29.23,46.2T654.49,302q-32.07,47.17-66,47.14-19.82,0-49-18.85c-1.89-1.26-5.51-4.39-10.85-9.43A146.85,146.85,0,0,0,514,308.61q-19.8-12.24-50.45-12.26T412.64,311q-20.28,14.64-20.28,40.54t24.05,42q24,16,59.87,21.69a707.75,707.75,0,0,1,78.26,17.44,487.78,487.78,0,0,1,78.26,28.76q35.82,17,59.87,58.93t24.05,103.25Q716.72,684.85,692.2,731.5Z" transform="translate(-17.65 -33.19)"/></svg>